<?xml version="1.0" standalone="no"?><!DOCTYPE svg PUBLIC "-//W3C//DTD SVG 1.1//EN" "http://www.w3.org/Graphics/SVG/1.1/DTD/svg11.dtd"><svg t="1555138070029" class="icon" style="" viewBox="0 0 1024 1024" version="1.1" xmlns="http://www.w3.org/2000/svg" p-id="3889" xmlns:xlink="http://www.w3.org/1999/xlink" width="200" height="200"><defs><style type="text/css"></style></defs><path d="M765.091 213.382L223.418 754.967V213.382H765.09z m-500.51 582.72l541.877-541.819v541.819H264.582zM79.42 213.586c0.29 0 0.524-0.204 0.815-0.204h85.003v611.81c0 0.408-0.174 0.757-0.145 1.164 0.64 16.146 14.225 28.8 30.4 28.131 0.29 0 0.524-0.174 0.815-0.203H806.43v87.272c0 0.408-0.174 0.756-0.145 1.164a29.178 29.178 0 1 0 58.297-1.134v-0.234c0-0.29 0.204-0.58 0.175-0.93 0-0.233-0.116-0.378-0.145-0.582v-85.528h86.924c0.406 0 0.785 0.205 1.221 0.175a29.324 29.324 0 1 0-2.298-58.589c-0.29 0.029-0.524 0.204-0.815 0.204h-85.032v-600l78.254-78.255a29.003 29.003 0 0 0 8.728-21.76 29.295 29.295 0 0 0-30.4-28.131 28.974 28.974 0 0 0-20.77 10.066l-77.15 77.178H223.418V67.928c0-0.408 0.204-0.728 0.204-1.135a29.178 29.178 0 0 0-58.327 1.135h-0.058v0.203c0 0.32-0.146 0.61-0.146 0.931 0 0.233 0.146 0.407 0.146 0.64v85.528H78.4c-0.436 0-0.815-0.263-1.25-0.234a29.295 29.295 0 1 0 2.268 58.59z" p-id="3890" fill="#d81e06"></path></svg>