<?xml version="1.0" standalone="no"?><!DOCTYPE svg PUBLIC "-//W3C//DTD SVG 1.1//EN" "http://www.w3.org/Graphics/SVG/1.1/DTD/svg11.dtd"><svg t="1555634940477" class="icon" style="" viewBox="0 0 1024 1024" version="1.1" xmlns="http://www.w3.org/2000/svg" p-id="4050" xmlns:xlink="http://www.w3.org/1999/xlink" width="200" height="200"><defs><style type="text/css"></style></defs><path d="M512 384C441.173333 384 384 441.173333 384 512 384 582.826667 441.173333 640 512 640 582.826667 640 640 582.826667 640 512 640 441.173333 582.826667 384 512 384M810.666667 810.666667 640 810.666667 640 896 810.666667 896C857.6 896 896 857.6 896 810.666667L896 640 810.666667 640M810.666667 128 640 128 640 213.333333 810.666667 213.333333 810.666667 384 896 384 896 213.333333C896 166.4 857.6 128 810.666667 128M213.333333 213.333333 384 213.333333 384 128 213.333333 128C166.4 128 128 166.4 128 213.333333L128 384 213.333333 384M213.333333 640 128 640 128 810.666667C128 857.6 166.4 896 213.333333 896L384 896 384 810.666667 213.333333 810.666667 213.333333 640Z" p-id="4051" fill="#1296db"></path></svg>