<?xml version="1.0" standalone="no"?><!DOCTYPE svg PUBLIC "-//W3C//DTD SVG 1.1//EN" "http://www.w3.org/Graphics/SVG/1.1/DTD/svg11.dtd"><svg t="1553053838845" class="icon" style="" viewBox="0 0 1024 1024" version="1.1" xmlns="http://www.w3.org/2000/svg" p-id="3315" xmlns:xlink="http://www.w3.org/1999/xlink" width="200" height="200"><defs><style type="text/css"></style></defs><path d="M644.010667 342.016l0-86.016q0-54.016-38.997333-93.013333t-93.013333-38.997333-93.013333 38.997333-38.997333 93.013333l0 86.016 264.021333 0zM512 726.016q34.005333 0 59.989333-25.984t25.984-59.989333-25.984-59.989333-59.989333-25.984-59.989333 25.984-25.984 59.989333 25.984 59.989333 59.989333 25.984zM768 342.016q34.005333 0 59.989333 25.002667t25.984 59.008l0 427.989333q0 34.005333-25.984 59.008t-59.989333 25.002667l-512 0q-34.005333 0-59.989333-25.002667t-25.984-59.008l0-427.989333q0-34.005333 25.984-59.008t59.989333-25.002667l41.984 0 0-86.016q0-88.021333 63.018667-150.997333t150.997333-63.018667 150.997333 63.018667 63.018667 150.997333l0 86.016 41.984 0z" p-id="3316" fill="#1296db"></path></svg>