<?xml version="1.0" standalone="no"?><!DOCTYPE svg PUBLIC "-//W3C//DTD SVG 1.1//EN" "http://www.w3.org/Graphics/SVG/1.1/DTD/svg11.dtd"><svg t="1555989198463" class="icon" style="" viewBox="0 0 1746 1024" version="1.1" xmlns="http://www.w3.org/2000/svg" p-id="15595" xmlns:xlink="http://www.w3.org/1999/xlink" width="341.015625" height="200"><defs><style type="text/css"></style></defs><path d="M120.470588 0h1505.882353a120.470588 120.470588 0 0 1 120.470588 120.470588v783.058824a120.470588 120.470588 0 0 1-120.470588 120.470588H120.470588a120.470588 120.470588 0 0 1-120.470588-120.470588V120.470588a120.470588 120.470588 0 0 1 120.470588-120.470588z m30.117647 120.470588a30.117647 30.117647 0 0 0-30.117647 30.117647v722.82353a30.117647 30.117647 0 0 0 30.117647 30.117647h1445.647059a30.117647 30.117647 0 0 0 30.117647-30.117647v-722.82353a30.117647 30.117647 0 0 0-30.117647-30.117647h-1445.647059z m100.291765 189.500236H638.494118v66.258823H483.448471V783.058824H405.925647V376.229647H250.88v-66.258823z m407.491765 0h387.614117v66.258823h-155.045647V783.058824h-77.522823V376.229647H658.371765v-66.258823z m610.906353-9.276236c55.657412 0 99.388235 11.264 130.529882 34.454588 33.129412 24.515765 52.344471 62.945882 56.982588 114.627765h-76.860235c-6.625882-29.153882-19.215059-50.356706-36.442353-62.945882-17.227294-13.251765-43.730824-19.215059-78.185412-19.215059-29.816471 0-52.344471 3.975529-68.246588 12.589176-19.877647 9.938824-29.153882 26.503529-29.153882 49.03153 0 19.877647 10.601412 36.442353 33.129411 48.368941 9.938824 5.300706 37.104941 15.239529 80.835765 29.153882 64.271059 19.877647 105.351529 35.779765 123.904 46.381177 41.080471 24.515765 61.620706 58.307765 61.620706 102.038588 0 42.405647-16.564706 76.197647-49.694118 100.713412-33.129412 23.853176-80.173176 36.442353-140.468706 36.442353-58.307765 0-104.026353-11.264-136.493176-33.792-39.755294-27.828706-61.620706-71.559529-64.933647-131.855059h76.860235c5.300706 35.779765 17.889882 61.620706 38.430118 76.860235 18.552471 13.251765 47.043765 20.540235 86.13647 20.540236 34.454588 0 62.283294-5.963294 82.160942-17.227295 19.877647-11.926588 30.479059-27.166118 30.479058-47.043764 0-25.178353-15.239529-45.056-44.393411-59.632941-9.276235-4.638118-39.755294-15.239529-92.099765-31.141647-58.307765-18.552471-94.750118-31.804235-108.664471-39.755295-36.442353-21.865412-54.332235-53.669647-54.332235-95.412705 0-41.743059 17.227294-74.872471 53.007059-98.725648 33.129412-23.190588 74.872471-34.454588 125.891765-34.454588z" fill="#1296db" p-id="15596"></path></svg>