<?xml version="1.0" standalone="no"?><!DOCTYPE svg PUBLIC "-//W3C//DTD SVG 1.1//EN" "http://www.w3.org/Graphics/SVG/1.1/DTD/svg11.dtd"><svg t="1555723750647" class="icon" style="" viewBox="0 0 1024 1024" version="1.1" xmlns="http://www.w3.org/2000/svg" p-id="17110" xmlns:xlink="http://www.w3.org/1999/xlink" width="200" height="200"><defs><style type="text/css"></style></defs><path d="M426.666667 640l256-128-256-128z" fill="#ffffff" p-id="17111"></path><path d="M896 85.333333H128c-47.061333 0-85.333333 38.229333-85.333333 85.333334v682.666666c0 47.061333 38.272 85.333333 85.333333 85.333334h768c47.061333 0 85.333333-38.272 85.333333-85.333334V170.666667c0-47.104-38.272-85.333333-85.333333-85.333334zM128 853.333333V170.666667h768l0.042667 682.666666H128z" fill="#ffffff" p-id="17112"></path><path d="M213.333333 213.333333h85.333334v85.333334H213.333333zM384 213.333333h85.333333v85.333334H384zM554.666667 213.333333h85.333333v85.333334h-85.333333zM725.333333 213.333333h85.333334v85.333334h-85.333334zM213.333333 725.333333h85.333334v85.333334H213.333333zM384 725.333333h85.333333v85.333334H384zM554.666667 725.333333h85.333333v85.333334h-85.333333zM725.333333 725.333333h85.333334v85.333334h-85.333334z" fill="#ffffff" p-id="17113"></path></svg>