<?xml version="1.0" standalone="no"?><!DOCTYPE svg PUBLIC "-//W3C//DTD SVG 1.1//EN" "http://www.w3.org/Graphics/SVG/1.1/DTD/svg11.dtd"><svg t="1555466629047" class="icon" style="" viewBox="0 0 1024 1024" version="1.1" xmlns="http://www.w3.org/2000/svg" p-id="1881" xmlns:xlink="http://www.w3.org/1999/xlink" width="200" height="200"><defs><style type="text/css"></style></defs><path d="M768 448a320 320 0 1 0-320 320 320 320 0 0 0 320-320z m64 0A384 384 0 1 1 448 64a384 384 0 0 1 384 384z" p-id="1882" fill="#1296db"></path><path d="M681.28 726.72a32 32 0 0 1 45.44-45.44l160 160a32 32 0 0 1-45.44 45.44zM288 480a32 32 0 0 1 0-64h320a32 32 0 0 1 0 64z" p-id="1883" fill="#1296db"></path></svg>